  0
SECTION
  2
HEADER
  9
$ACADVER
  1
AC1027
  9
$ACADMAINTVER
 70
105
  9
$DWGCODEPAGE
  3
ANSI_1252
  9
$LASTSAVEDBY
  1
ezdxf
  9
$REQUIREDVERSIONS
160
0
  9
$INSBASE
 10
0.0
 20
0.0
 30
0.0
  9
$EXTMIN
 10
1e+20
 20
1e+20
 30
1e+20
  9
$EXTMAX
 10
-1e+20
 20
-1e+20
 30
-1e+20
  9
$LIMMIN
 10
0.0
 20
0.0
  9
$LIMMAX
 10
420.0
 20
297.0
  9
$ORTHOMODE
 70
0
  9
$REGENMODE
 70
1
  9
$FILLMODE
 70
1
  9
$QTEXTMODE
 70
0
  9
$MIRRTEXT
 70
1
  9
$LTSCALE
 40
1.0
  9
$ATTMODE
 70
1
  9
$TEXTSIZE
 40
2.5
  9
$TRACEWID
 40
1.0
  9
$TEXTSTYLE
  7
Standard
  9
$CLAYER
  8
0
  9
$CELTYPE
  6
ByLayer
  9
$CECOLOR
 62
256
  9
$CELTSCALE
 40
1.0
  9
$DISPSILH
 70
0
  9
$DIMSCALE
 40
1.0
  9
$DIMASZ
 40
2.5
  9
$DIMEXO
 40
0.625
  9
$DIMDLI
 40
3.75
  9
$DIMRND
 40
0.0
  9
$DIMDLE
 40
0.0
  9
$DIMEXE
 40
1.25
  9
$DIMTP
 40
0.0
  9
$DIMTM
 40
0.0
  9
$DIMTXT
 40
2.5
  9
$DIMCEN
 40
2.5
  9
$DIMTSZ
 40
0.0
  9
$DIMTOL
 70
0
  9
$DIMLIM
 70
0
  9
$DIMTIH
 70
0
  9
$DIMTOH
 70
0
  9
$DIMSE1
 70
0
  9
$DIMSE2
 70
0
  9
$DIMTAD
 70
1
  9
$DIMZIN
 70
8
  9
$DIMBLK
  1

  9
$DIMASO
 70
1
  9
$DIMSHO
 70
1
  9
$DIMPOST
  1

  9
$DIMAPOST
  1

  9
$DIMALT
 70
0
  9
$DIMALTD
 70
3
  9
$DIMALTF
 40
0.03937007874
  9
$DIMLFAC
 40
1.0
  9
$DIMTOFL
 70
1
  9
$DIMTVP
 40
0.0
  9
$DIMTIX
 70
0
  9
$DIMSOXD
 70
0
  9
$DIMSAH
 70
0
  9
$DIMBLK1
  1

  9
$DIMBLK2
  1

  9
$DIMSTYLE
  2
ISO-25
  9
$DIMCLRD
 70
0
  9
$DIMCLRE
 70
0
  9
$DIMCLRT
 70
0
  9
$DIMTFAC
 40
1.0
  9
$DIMGAP
 40
0.625
  9
$DIMJUST
 70
0
  9
$DIMSD1
 70
0
  9
$DIMSD2
 70
0
  9
$DIMTOLJ
 70
0
  9
$DIMTZIN
 70
8
  9
$DIMALTZ
 70
0
  9
$DIMALTTZ
 70
0
  9
$DIMUPT
 70
0
  9
$DIMDEC
 70
2
  9
$DIMTDEC
 70
2
  9
$DIMALTU
 70
2
  9
$DIMALTTD
 70
3
  9
$DIMTXSTY
  7
Standard
  9
$DIMAUNIT
 70
0
  9
$DIMADEC
 70
0
  9
$DIMALTRND
 40
0.0
  9
$DIMAZIN
 70
0
  9
$DIMDSEP
 70
44
  9
$DIMATFIT
 70
3
  9
$DIMFRAC
 70
0
  9
$DIMLDRBLK
  1

  9
$DIMLUNIT
 70
2
  9
$DIMLWD
 70
-2
  9
$DIMLWE
 70
-2
  9
$DIMTMOVE
 70
0
  9
$DIMFXL
 40
1.0
  9
$DIMFXLON
 70
0
  9
$DIMJOGANG
 40
0.785398163397
  9
$DIMTFILL
 70
0
  9
$DIMTFILLCLR
 70
0
  9
$DIMARCSYM
 70
0
  9
$DIMLTYPE
  6

  9
$DIMLTEX1
  6

  9
$DIMLTEX2
  6

  9
$DIMTXTDIRECTION
 70
0
  9
$LUNITS
 70
2
  9
$LUPREC
 70
4
  9
$SKETCHINC
 40
1.0
  9
$FILLETRAD
 40
10.0
  9
$AUNITS
 70
0
  9
$AUPREC
 70
2
  9
$MENU
  1
.
  9
$ELEVATION
 40
0.0
  9
$PELEVATION
 40
0.0
  9
$THICKNESS
 40
0.0
  9
$LIMCHECK
 70
0
  9
$CHAMFERA
 40
0.0
  9
$CHAMFERB
 40
0.0
  9
$CHAMFERC
 40
0.0
  9
$CHAMFERD
 40
0.0
  9
$SKPOLY
 70
0
  9
$TDCREATE
 40
2460622.710798611
  9
$TDUCREATE
 40
2458532.153996898
  9
$TDUPDATE
 40
2460622.710798611
  9
$TDUUPDATE
 40
2458532.1544311
  9
$TDINDWG
 40
0.0
  9
$TDUSRTIMER
 40
0.0
  9
$USRTIMER
 70
1
  9
$ANGBASE
 50
0.0
  9
$ANGDIR
 70
0
  9
$PDMODE
 70
0
  9
$PDSIZE
 40
0.0
  9
$PLINEWID
 40
0.0
  9
$SPLFRAME
 70
0
  9
$SPLINETYPE
 70
6
  9
$SPLINESEGS
 70
8
  9
$HANDSEED
  5
127
  9
$SURFTAB1
 70
6
  9
$SURFTAB2
 70
6
  9
$SURFTYPE
 70
6
  9
$SURFU
 70
6
  9
$SURFV
 70
6
  9
$UCSBASE
  2

  9
$UCSNAME
  2

  9
$UCSORG
 10
0.0
 20
0.0
 30
0.0
  9
$UCSXDIR
 10
1.0
 20
0.0
 30
0.0
  9
$UCSYDIR
 10
0.0
 20
1.0
 30
0.0
  9
$UCSORTHOREF
  2

  9
$UCSORTHOVIEW
 70
0
  9
$UCSORGTOP
 10
0.0
 20
0.0
 30
0.0
  9
$UCSORGBOTTOM
 10
0.0
 20
0.0
 30
0.0
  9
$UCSORGLEFT
 10
0.0
 20
0.0
 30
0.0
  9
$UCSORGRIGHT
 10
0.0
 20
0.0
 30
0.0
  9
$UCSORGFRONT
 10
0.0
 20
0.0
 30
0.0
  9
$UCSORGBACK
 10
0.0
 20
0.0
 30
0.0
  9
$PUCSBASE
  2

  9
$PUCSNAME
  2

  9
$PUCSORG
 10
0.0
 20
0.0
 30
0.0
  9
$PUCSXDIR
 10
1.0
 20
0.0
 30
0.0
  9
$PUCSYDIR
 10
0.0
 20
1.0
 30
0.0
  9
$PUCSORTHOREF
  2

  9
$PUCSORTHOVIEW
 70
0
  9
$PUCSORGTOP
 10
0.0
 20
0.0
 30
0.0
  9
$PUCSORGBOTTOM
 10
0.0
 20
0.0
 30
0.0
  9
$PUCSORGLEFT
 10
0.0
 20
0.0
 30
0.0
  9
$PUCSORGRIGHT
 10
0.0
 20
0.0
 30
0.0
  9
$PUCSORGFRONT
 10
0.0
 20
0.0
 30
0.0
  9
$PUCSORGBACK
 10
0.0
 20
0.0
 30
0.0
  9
$USERI1
 70
0
  9
$USERI2
 70
0
  9
$USERI3
 70
0
  9
$USERI4
 70
0
  9
$USERI5
 70
0
  9
$USERR1
 40
0.0
  9
$USERR2
 40
0.0
  9
$USERR3
 40
0.0
  9
$USERR4
 40
0.0
  9
$USERR5
 40
0.0
  9
$WORLDVIEW
 70
1
  9
$SHADEDGE
 70
3
  9
$SHADEDIF
 70
70
  9
$TILEMODE
 70
1
  9
$MAXACTVP
 70
64
  9
$PINSBASE
 10
0.0
 20
0.0
 30
0.0
  9
$PLIMCHECK
 70
0
  9
$PEXTMIN
 10
1e+20
 20
1e+20
 30
1e+20
  9
$PEXTMAX
 10
-1e+20
 20
-1e+20
 30
-1e+20
  9
$PLIMMIN
 10
0.0
 20
0.0
  9
$PLIMMAX
 10
420.0
 20
297.0
  9
$UNITMODE
 70
0
  9
$VISRETAIN
 70
1
  9
$PLINEGEN
 70
0
  9
$PSLTSCALE
 70
1
  9
$TREEDEPTH
 70
3020
  9
$CMLSTYLE
  2
Standard
  9
$CMLJUST
 70
0
  9
$CMLSCALE
 40
20.0
  9
$PROXYGRAPHICS
 70
1
  9
$MEASUREMENT
 70
1
  9
$CELWEIGHT
370
-1
  9
$ENDCAPS
280
0
  9
$JOINSTYLE
280
0
  9
$LWDISPLAY
290
0
  9
$INSUNITS
 70
4
  9
$HYPERLINKBASE
  1

  9
$STYLESHEET
  1

  9
$XEDIT
290
1
  9
$CEPSNTYPE
380
0
  9
$PSTYLEMODE
290
1
  9
$FINGERPRINTGUID
  2
{60A733E2-74ED-4F9C-AA6B-225F70AF7BD1}
  9
$VERSIONGUID
  2
{B20F64E4-4566-40C6-BE3C-C5A12F570AA2}
  9
$EXTNAMES
290
1
  9
$PSVPSCALE
 40
0.0
  9
$OLESTARTUP
290
0
  9
$SORTENTS
280
127
  9
$INDEXCTL
280
0
  9
$HIDETEXT
280
1
  9
$XCLIPFRAME
280
1
  9
$HALOGAP
280
0
  9
$OBSCOLOR
 70
257
  9
$OBSLTYPE
280
0
  9
$INTERSECTIONDISPLAY
280
0
  9
$INTERSECTIONCOLOR
 70
257
  9
$DIMASSOC
280
2
  9
$PROJECTNAME
  1

  9
$CAMERADISPLAY
290
0
  9
$LENSLENGTH
 40
50.0
  9
$CAMERAHEIGHT
 40
0.0
  9
$STEPSPERSEC
 40
24.0
  9
$STEPSIZE
 40
100.0
  9
$3DDWFPREC
 40
2.0
  9
$PSOLWIDTH
 40
0.005
  9
$PSOLHEIGHT
 40
0.08
  9
$LOFTANG1
 40
1.570796326795
  9
$LOFTANG2
 40
1.570796326795
  9
$LOFTMAG1
 40
0.0
  9
$LOFTMAG2
 40
0.0
  9
$LOFTPARAM
 70
7
  9
$LOFTNORMALS
280
1
  9
$LATITUDE
 40
37.795
  9
$LONGITUDE
 40
-122.394
  9
$NORTHDIRECTION
 40
0.0
  9
$TIMEZONE
 70
-8000
  9
$LIGHTGLYPHDISPLAY
280
1
  9
$TILEMODELIGHTSYNCH
280
1
  9
$CMATERIAL
347
20
  9
$SOLIDHIST
280
0
  9
$SHOWHIST
280
1
  9
$DWFFRAME
280
2
  9
$DGNFRAME
280
2
  9
$REALWORLDSCALE
290
1
  9
$INTERFERECOLOR
 62
256
  9
$CSHADOW
280
0
  9
$SHADOWPLANELOCATION
 40
0.0
  0
ENDSEC
  0
SECTION
  2
CLASSES
  0
CLASS
  1
ACDBDICTIONARYWDFLT
  2
AcDbDictionaryWithDefault
  3
ObjectDBX Classes
 90
0
 91
0
280
0
281
0
  0
CLASS
  1
SUN
  2
AcDbSun
  3
SCENEOE
 90
1153
 91
0
280
0
281
0
  0
CLASS
  1
VISUALSTYLE
  2
AcDbVisualStyle
  3
ObjectDBX Classes
 90
4095
 91
0
280
0
281
0
  0
CLASS
  1
MATERIAL
  2
AcDbMaterial
  3
ObjectDBX Classes
 90
1153
 91
0
280
0
281
0
  0
CLASS
  1
SCALE
  2
AcDbScale
  3
ObjectDBX Classes
 90
1153
 91
0
280
0
281
0
  0
CLASS
  1
TABLESTYLE
  2
AcDbTableStyle
  3
ObjectDBX Classes
 90
4095
 91
0
280
0
281
0
  0
CLASS
  1
MLEADERSTYLE
  2
AcDbMLeaderStyle
  3
ACDB_MLEADERSTYLE_CLASS
 90
4095
 91
0
280
0
281
0
  0
CLASS
  1
DICTIONARYVAR
  2
AcDbDictionaryVar
  3
ObjectDBX Classes
 90
0
 91
0
280
0
281
0
  0
CLASS
  1
CELLSTYLEMAP
  2
AcDbCellStyleMap
  3
ObjectDBX Classes
 90
1152
 91
0
280
0
281
0
  0
CLASS
  1
MENTALRAYRENDERSETTINGS
  2
AcDbMentalRayRenderSettings
  3
SCENEOE
 90
1024
 91
0
280
0
281
0
  0
CLASS
  1
ACDBDETAILVIEWSTYLE
  2
AcDbDetailViewStyle
  3
ObjectDBX Classes
 90
1025
 91
0
280
0
281
0
  0
CLASS
  1
ACDBSECTIONVIEWSTYLE
  2
AcDbSectionViewStyle
  3
ObjectDBX Classes
 90
1025
 91
0
280
0
281
0
  0
CLASS
  1
RASTERVARIABLES
  2
AcDbRasterVariables
  3
ISM
 90
0
 91
0
280
0
281
0
  0
CLASS
  1
LAYOUT
  2
AcDbLayout
  3
ObjectDBX Classes
 90
0
 91
0
280
0
281
0
  0
CLASS
  1
ACDBPLACEHOLDER
  2
AcDbPlaceHolder
  3
ObjectDBX Classes
 90
0
 91
0
280
0
281
0
  0
ENDSEC
  0
SECTION
  2
TABLES
  0
TABLE
  2
VPORT
  5
8
330
0
100
AcDbSymbolTable
 70
1
  0
VPORT
  5
23
330
8
100
AcDbSymbolTableRecord
100
AcDbViewportTableRecord
  2
*Active
 70
0
 10
0.0
 20
0.0
 11
1.0
 21
1.0
 12
0.0
 22
0.0
 13
0.0
 23
0.0
 14
0.5
 24
0.5
 15
0.5
 25
0.5
 16
0.0
 26
0.0
 36
1.0
 17
0.0
 27
0.0
 37
0.0
 40
1000.0
 41
1.34
 42
50.0
 43
0.0
 44
0.0
 50
0.0
 51
0.0
 71
0
 72
1000
 73
1
 74
3
 75
0
 76
0
 77
0
 78
0
281
0
 65
0
146
0.0
  0
ENDTAB
  0
TABLE
  2
LTYPE
  5
2
330
0
100
AcDbSymbolTable
 70
3
  0
LTYPE
  5
24
330
2
100
AcDbSymbolTableRecord
100
AcDbLinetypeTableRecord
  2
ByBlock
 70
0
  3

 72
65
 73
0
 40
0.0
  0
LTYPE
  5
25
330
2
100
AcDbSymbolTableRecord
100
AcDbLinetypeTableRecord
  2
ByLayer
 70
0
  3

 72
65
 73
0
 40
0.0
  0
LTYPE
  5
26
330
2
100
AcDbSymbolTableRecord
100
AcDbLinetypeTableRecord
  2
Continuous
 70
0
  3

 72
65
 73
0
 40
0.0
  0
ENDTAB
  0
TABLE
  2
LAYER
  5
1
330
0
100
AcDbSymbolTable
 70
3
  0
LAYER
  5
27
330
1
100
AcDbSymbolTableRecord
100
AcDbLayerTableRecord
  2
0
 70
0
 62
7
  6
Continuous
370
-3
390
13
347
21
  0
LAYER
  5
28
330
1
100
AcDbSymbolTableRecord
100
AcDbLayerTableRecord
  2
Defpoints
 70
0
 62
7
  6
Continuous
290
0
370
-3
390
13
347
21
  0
LAYER
  5
30
330
1
100
AcDbSymbolTableRecord
100
AcDbLayerTableRecord
  2
PileReactions
 70
0
 62
3
  6
Continuous
370
-3
390
13
347
21
  0
ENDTAB
  0
TABLE
  2
STYLE
  5
5
330
0
100
AcDbSymbolTable
 70
2
  0
STYLE
  5
29
330
5
100
AcDbSymbolTableRecord
100
AcDbTextStyleTableRecord
  2
Standard
 70
0
 40
0.0
 41
1.0
 50
0.0
 71
0
 42
2.5
  3
txt
  4

  0
STYLE
  5
2F
330
5
100
AcDbSymbolTableRecord
100
AcDbTextStyleTableRecord
  2
CustomStyle
 70
0
 40
0.0
 41
1.0
 50
10.0
 71
0
 42
2.5
  3
Arial
  4

  0
ENDTAB
  0
TABLE
  2
VIEW
  5
7
330
0
100
AcDbSymbolTable
 70
0
  0
ENDTAB
  0
TABLE
  2
UCS
  5
6
330
0
100
AcDbSymbolTable
 70
0
  0
ENDTAB
  0
TABLE
  2
APPID
  5
3
330
0
100
AcDbSymbolTable
 70
3
  0
APPID
  5
2A
330
3
100
AcDbSymbolTableRecord
100
AcDbRegAppTableRecord
  2
ACAD
 70
0
  0
APPID
  5
124
330
3
100
AcDbSymbolTableRecord
100
AcDbRegAppTableRecord
  2
HATCHBACKGROUNDCOLOR
 70
0
  0
APPID
  5
125
330
3
100
AcDbSymbolTableRecord
100
AcDbRegAppTableRecord
  2
EZDXF
 70
0
  0
ENDTAB
  0
TABLE
  2
DIMSTYLE
  5
4
330
0
100
AcDbSymbolTable
 70
1
100
AcDbDimStyleTable
  0
DIMSTYLE
105
2B
330
4
100
AcDbSymbolTableRecord
100
AcDbDimStyleTableRecord
  2
Standard
 70
0
 40
1.0
 41
2.5
 42
0.625
 43
3.75
 44
1.25
 45
0.0
 46
0.0
 47
0.0
 48
0.0
 49
2.5
140
2.5
141
2.5
142
0.0
143
0.03937007874
144
1.0
145
0.0
146
1.0
147
0.625
148
0.0
 69
0
 70
0
 71
0
 72
0
 73
0
 74
0
 75
0
 76
0
 77
1
 78
8
 79
3
170
0
171
3
172
1
173
0
174
0
175
0
176
0
177
0
178
0
179
2
271
2
272
2
273
2
274
3
275
0
276
0
277
2
278
44
279
0
280
0
281
0
282
0
283
0
284
8
285
0
286
0
288
0
289
3
290
0
371
-2
372
-2
  0
ENDTAB
  0
TABLE
  2
BLOCK_RECORD
  5
9
330
0
100
AcDbSymbolTable
 70
2
  0
BLOCK_RECORD
  5
17
330
9
100
AcDbSymbolTableRecord
100
AcDbBlockTableRecord
  2
*Model_Space
340
1A
 70
0
280
1
281
0
  0
BLOCK_RECORD
  5
1B
330
9
100
AcDbSymbolTableRecord
100
AcDbBlockTableRecord
  2
*Paper_Space
340
1E
 70
0
280
1
281
0
  0
ENDTAB
  0
ENDSEC
  0
SECTION
  2
BLOCKS
  0
BLOCK
  5
18
330
17
100
AcDbEntity
  8
0
100
AcDbBlockBegin
  2
*Model_Space
 70
0
 10
0.0
 20
0.0
 30
0.0
  3
*Model_Space
  1

  0
ENDBLK
  5
19
330
17
100
AcDbEntity
  8
0
100
AcDbBlockEnd
  0
BLOCK
  5
1C
330
1B
100
AcDbEntity
  8
0
100
AcDbBlockBegin
  2
*Paper_Space
 70
0
 10
0.0
 20
0.0
 30
0.0
  3
*Paper_Space
  1

  0
ENDBLK
  5
1D
330
1B
100
AcDbEntity
  8
0
100
AcDbBlockEnd
  0
ENDSEC
  0
SECTION
  2
ENTITIES
  0
TEXT
  5
31
330
17
100
AcDbEntity
  8
PileReactions
 62
3
100
AcDbText
 10
9949.49936337979
 20
49684.7096420099
 30
0.0
 40
300.0
  1
150
  7
CustomStyle
100
AcDbText
  0
TEXT
  5
32
330
17
100
AcDbEntity
  8
PileReactions
 62
3
100
AcDbText
 10
15849.4993633798
 20
49684.7096420099
 30
0.0
 40
300.0
  1
608
  7
CustomStyle
100
AcDbText
  0
TEXT
  5
33
330
17
100
AcDbEntity
  8
PileReactions
 62
3
100
AcDbText
 10
21749.499363379702
 20
49684.7096420099
 30
0.0
 40
300.0
  1
830
  7
CustomStyle
100
AcDbText
  0
TEXT
  5
34
330
17
100
AcDbEntity
  8
PileReactions
 62
3
100
AcDbText
 10
27741.6315313932
 20
49684.7096420099
 30
0.0
 40
300.0
  1
1048
  7
CustomStyle
100
AcDbText
  0
TEXT
  5
35
330
17
100
AcDbEntity
  8
PileReactions
 62
3
100
AcDbText
 10
33641.6315313932
 20
49684.7096420099
 30
0.0
 40
300.0
  1
1194
  7
CustomStyle
100
AcDbText
  0
TEXT
  5
36
330
17
100
AcDbEntity
  8
PileReactions
 62
3
100
AcDbText
 10
39541.6315313929
 20
49684.7096420099
 30
0.0
 40
300.0
  1
1072
  7
CustomStyle
100
AcDbText
  0
TEXT
  5
37
330
17
100
AcDbEntity
  8
PileReactions
 62
3
100
AcDbText
 10
45441.631531393
 20
49684.7096420099
 30
0.0
 40
300.0
  1
1140
  7
CustomStyle
100
AcDbText
  0
TEXT
  5
38
330
17
100
AcDbEntity
  8
PileReactions
 62
3
100
AcDbText
 10
51341.631531392995
 20
49684.7096420099
 30
0.0
 40
300.0
  1
1093
  7
CustomStyle
100
AcDbText
  0
TEXT
  5
39
330
17
100
AcDbEntity
  8
PileReactions
 62
3
100
AcDbText
 10
57241.631531392995
 20
49684.7096420099
 30
0.0
 40
300.0
  1
1171
  7
CustomStyle
100
AcDbText
  0
TEXT
  5
3A
330
17
100
AcDbEntity
  8
PileReactions
 62
3
100
AcDbText
 10
63141.6315313932
 20
49684.7096420099
 30
0.0
 40
300.0
  1
1078
  7
CustomStyle
100
AcDbText
  0
TEXT
  5
3B
330
17
100
AcDbEntity
  8
PileReactions
 62
3
100
AcDbText
 10
69041.631531393
 20
49684.7096420099
 30
0.0
 40
300.0
  1
670
  7
CustomStyle
100
AcDbText
  0
TEXT
  5
3C
330
17
100
AcDbEntity
  8
PileReactions
 62
3
100
AcDbText
 10
73254.7010241951
 20
48786.780453763
 30
0.0
 40
300.0
  1
322
  7
CustomStyle
100
AcDbText
  0
TEXT
  5
3D
330
17
100
AcDbEntity
  8
PileReactions
 62
3
100
AcDbText
 10
71995.1792644768
 20
45758.3052232201
 30
0.0
 40
300.0
  1
1570
  7
CustomStyle
100
AcDbText
  0
TEXT
  5
3E
330
17
100
AcDbEntity
  8
PileReactions
 62
3
100
AcDbText
 10
64938.10373656819
 20
45758.3336251266
 30
0.0
 40
300.0
  1
4527
  7
CustomStyle
100
AcDbText
  0
TEXT
  5
3F
330
17
100
AcDbEntity
  8
PileReactions
 62
3
100
AcDbText
 10
61938.1037365682
 20
45758.3336251266
 30
0.0
 40
300.0
  1
4959
  7
CustomStyle
100
AcDbText
  0
TEXT
  5
40
330
17
100
AcDbEntity
  8
PileReactions
 62
3
100
AcDbText
 10
57737.1205278432
 20
46654.800745012304
 30
0.0
 40
300.0
  1
4242
  7
CustomStyle
100
AcDbText
  0
TEXT
  5
41
330
17
100
AcDbEntity
  8
PileReactions
 62
3
100
AcDbText
 10
54737.1205278434
 20
46654.800745012304
 30
0.0
 40
300.0
  1
4032
  7
CustomStyle
100
AcDbText
  0
TEXT
  5
42
330
17
100
AcDbEntity
  8
PileReactions
 62
3
100
AcDbText
 10
47814.5141479413
 20
46482.845551136
 30
0.0
 40
300.0
  1
4046
  7
CustomStyle
100
AcDbText
  0
TEXT
  5
43
330
17
100
AcDbEntity
  8
PileReactions
 62
3
100
AcDbText
 10
44814.5141479413
 20
46482.845551136
 30
0.0
 40
300.0
  1
3947
  7
CustomStyle
100
AcDbText
  0
TEXT
  5
44
330
17
100
AcDbEntity
  8
PileReactions
 62
3
100
AcDbText
 10
12058.485764477799
 20
46981.0746063516
 30
0.0
 40
300.0
  1
1022
  7
CustomStyle
100
AcDbText
  0
TEXT
  5
45
330
17
100
AcDbEntity
  8
PileReactions
 62
3
100
AcDbText
 10
16729.4857644775
 20
46981.0746063516
 30
0.0
 40
300.0
  1
1783
  7
CustomStyle
100
AcDbText
  0
TEXT
  5
46
330
17
100
AcDbEntity
  8
PileReactions
 62
3
100
AcDbText
 10
20987.951220540603
 20
46466.7923005345
 30
0.0
 40
300.0
  1
2531
  7
CustomStyle
100
AcDbText
  0
TEXT
  5
47
330
17
100
AcDbEntity
  8
PileReactions
 62
3
100
AcDbText
 10
24275.9050712233
 20
46416.9100087472
 30
0.0
 40
300.0
  1
3081
  7
CustomStyle
100
AcDbText
  0
TEXT
  5
48
330
17
100
AcDbEntity
  8
PileReactions
 62
3
100
AcDbText
 10
13656.657113045601
 20
43981.0746063516
 30
0.0
 40
300.0
  1
2043
  7
CustomStyle
100
AcDbText
  0
TEXT
  5
49
330
17
100
AcDbEntity
  8
PileReactions
 62
3
100
AcDbText
 10
16656.6571130456
 20
43981.0746063516
 30
0.0
 40
300.0
  1
2618
  7
CustomStyle
100
AcDbText
  0
TEXT
  5
4A
330
17
100
AcDbEntity
  8
PileReactions
 62
3
100
AcDbText
 10
10656.657113045601
 20
40981.0746063516
 30
0.0
 40
300.0
  1
877
  7
CustomStyle
100
AcDbText
  0
TEXT
  5
4B
330
17
100
AcDbEntity
  8
PileReactions
 62
3
100
AcDbText
 10
13656.657113045601
 20
40981.0746063516
 30
0.0
 40
300.0
  1
2220
  7
CustomStyle
100
AcDbText
  0
TEXT
  5
4C
330
17
100
AcDbEntity
  8
PileReactions
 62
3
100
AcDbText
 10
16656.6571130456
 20
40981.0746063516
 30
0.0
 40
300.0
  1
2990
  7
CustomStyle
100
AcDbText
  0
TEXT
  5
4D
330
17
100
AcDbEntity
  8
PileReactions
 62
3
100
AcDbText
 10
20987.951220540603
 20
43466.7923005345
 30
0.0
 40
300.0
  1
3590
  7
CustomStyle
100
AcDbText
  0
TEXT
  5
4E
330
17
100
AcDbEntity
  8
PileReactions
 62
3
100
AcDbText
 10
20987.951220540603
 20
40466.7923005345
 30
0.0
 40
300.0
  1
4162
  7
CustomStyle
100
AcDbText
  0
TEXT
  5
4F
330
17
100
AcDbEntity
  8
PileReactions
 62
3
100
AcDbText
 10
24275.9050712233
 20
40416.9100087472
 30
0.0
 40
300.0
  1
5196
  7
CustomStyle
100
AcDbText
  0
TEXT
  5
50
330
17
100
AcDbEntity
  8
PileReactions
 62
3
100
AcDbText
 10
24275.9050712233
 20
43416.9100087472
 30
0.0
 40
300.0
  1
4456
  7
CustomStyle
100
AcDbText
  0
TEXT
  5
51
330
17
100
AcDbEntity
  8
PileReactions
 62
3
100
AcDbText
 10
30049.312172374
 20
43981.0746063516
 30
0.0
 40
300.0
  1
5395
  7
CustomStyle
100
AcDbText
  0
TEXT
  5
52
330
17
100
AcDbEntity
  8
PileReactions
 62
3
100
AcDbText
 10
30049.312172374
 20
40981.0746063516
 30
0.0
 40
300.0
  1
7111
  7
CustomStyle
100
AcDbText
  0
TEXT
  5
53
330
17
100
AcDbEntity
  8
PileReactions
 62
3
100
AcDbText
 10
33049.312172374004
 20
40981.0746063516
 30
0.0
 40
300.0
  1
7178
  7
CustomStyle
100
AcDbText
  0
TEXT
  5
54
330
17
100
AcDbEntity
  8
PileReactions
 62
3
100
AcDbText
 10
33049.312172374004
 20
43981.0746063516
 30
0.0
 40
300.0
  1
5557
  7
CustomStyle
100
AcDbText
  0
TEXT
  5
55
330
17
100
AcDbEntity
  8
PileReactions
 62
3
100
AcDbText
 10
36049.312172374004
 20
43981.0746063516
 30
0.0
 40
300.0
  1
5453
  7
CustomStyle
100
AcDbText
  0
TEXT
  5
56
330
17
100
AcDbEntity
  8
PileReactions
 62
3
100
AcDbText
 10
36049.312172374004
 20
40981.0746063516
 30
0.0
 40
300.0
  1
6209
  7
CustomStyle
100
AcDbText
  0
TEXT
  5
57
330
17
100
AcDbEntity
  8
PileReactions
 62
3
100
AcDbText
 10
39049.3121723739
 20
40981.0746063516
 30
0.0
 40
300.0
  1
5207
  7
CustomStyle
100
AcDbText
  0
TEXT
  5
58
330
17
100
AcDbEntity
  8
PileReactions
 62
3
100
AcDbText
 10
39049.3121723739
 20
43981.0746063516
 30
0.0
 40
300.0
  1
4648
  7
CustomStyle
100
AcDbText
  0
TEXT
  5
59
330
17
100
AcDbEntity
  8
PileReactions
 62
3
100
AcDbText
 10
44814.5141479413
 20
43482.845551136
 30
0.0
 40
300.0
  1
5464
  7
CustomStyle
100
AcDbText
  0
TEXT
  5
5A
330
17
100
AcDbEntity
  8
PileReactions
 62
3
100
AcDbText
 10
44814.5141479413
 20
40482.845551136
 30
0.0
 40
300.0
  1
5666
  7
CustomStyle
100
AcDbText
  0
TEXT
  5
5B
330
17
100
AcDbEntity
  8
PileReactions
 62
3
100
AcDbText
 10
47814.5141479413
 20
40482.845551136
 30
0.0
 40
300.0
  1
5814
  7
CustomStyle
100
AcDbText
  0
TEXT
  5
5C
330
17
100
AcDbEntity
  8
PileReactions
 62
3
100
AcDbText
 10
47814.5141479413
 20
43482.845551136
 30
0.0
 40
300.0
  1
5625
  7
CustomStyle
100
AcDbText
  0
TEXT
  5
5D
330
17
100
AcDbEntity
  8
PileReactions
 62
3
100
AcDbText
 10
54737.1205278434
 20
43654.800745012304
 30
0.0
 40
300.0
  1
5858
  7
CustomStyle
100
AcDbText
  0
TEXT
  5
5E
330
17
100
AcDbEntity
  8
PileReactions
 62
3
100
AcDbText
 10
54737.1205278434
 20
40654.800745012304
 30
0.0
 40
300.0
  1
6290
  7
CustomStyle
100
AcDbText
  0
TEXT
  5
5F
330
17
100
AcDbEntity
  8
PileReactions
 62
3
100
AcDbText
 10
57737.1205278432
 20
40654.800745012304
 30
0.0
 40
300.0
  1
6966
  7
CustomStyle
100
AcDbText
  0
TEXT
  5
60
330
17
100
AcDbEntity
  8
PileReactions
 62
3
100
AcDbText
 10
57737.1205278432
 20
43654.800745012304
 30
0.0
 40
300.0
  1
6333
  7
CustomStyle
100
AcDbText
  0
TEXT
  5
61
330
17
100
AcDbEntity
  8
PileReactions
 62
3
100
AcDbText
 10
61938.1037365682
 20
39967.7509690682
 30
0.0
 40
300.0
  1
7696
  7
CustomStyle
100
AcDbText
  0
TEXT
  5
62
330
17
100
AcDbEntity
  8
PileReactions
 62
3
100
AcDbText
 10
64949.25000000001
 20
39972.03
 30
0.0
 40
300.0
  1
7482
  7
CustomStyle
100
AcDbText
  0
TEXT
  5
63
330
17
100
AcDbEntity
  8
PileReactions
 62
3
100
AcDbText
 10
68476.8999685261
 20
40006.9573177053
 30
0.0
 40
300.0
  1
5406
  7
CustomStyle
100
AcDbText
  0
TEXT
  5
64
330
17
100
AcDbEntity
  8
PileReactions
 62
3
100
AcDbText
 10
67929.8194609066
 20
42882.7420290682
 30
0.0
 40
300.0
  1
4977
  7
CustomStyle
100
AcDbText
  0
TEXT
  5
65
330
17
100
AcDbEntity
  8
PileReactions
 62
3
100
AcDbText
 10
72189.9117566088
 20
41082.4619534202
 30
0.0
 40
300.0
  1
2670
  7
CustomStyle
100
AcDbText
  0
TEXT
  5
66
330
17
100
AcDbEntity
  8
PileReactions
 62
3
100
AcDbText
 10
10656.657113045601
 20
37981.0746063516
 30
0.0
 40
300.0
  1
955
  7
CustomStyle
100
AcDbText
  0
TEXT
  5
67
330
17
100
AcDbEntity
  8
PileReactions
 62
3
100
AcDbText
 10
13656.657113045601
 20
37981.0746063516
 30
0.0
 40
300.0
  1
2378
  7
CustomStyle
100
AcDbText
  0
TEXT
  5
68
330
17
100
AcDbEntity
  8
PileReactions
 62
3
100
AcDbText
 10
16656.6571130456
 20
37981.0746063516
 30
0.0
 40
300.0
  1
3305
  7
CustomStyle
100
AcDbText
  0
TEXT
  5
69
330
17
100
AcDbEntity
  8
PileReactions
 62
3
100
AcDbText
 10
72163.25231996921
 20
37055.233141839504
 30
0.0
 40
300.0
  1
3053
  7
CustomStyle
100
AcDbText
  0
TEXT
  5
6A
330
17
100
AcDbEntity
  8
PileReactions
 62
3
100
AcDbText
 10
68463.2054858321
 20
37055.233141839504
 30
0.0
 40
300.0
  1
5599
  7
CustomStyle
100
AcDbText
  0
TEXT
  5
6B
330
17
100
AcDbEntity
  8
PileReactions
 62
3
100
AcDbText
 10
64938.10373656819
 20
37055.233141839504
 30
0.0
 40
300.0
  1
7492
  7
CustomStyle
100
AcDbText
  0
TEXT
  5
6C
330
17
100
AcDbEntity
  8
PileReactions
 62
3
100
AcDbText
 10
61938.1037365682
 20
37055.233141839504
 30
0.0
 40
300.0
  1
7496
  7
CustomStyle
100
AcDbText
  0
TEXT
  5
6D
330
17
100
AcDbEntity
  8
PileReactions
 62
3
100
AcDbText
 10
61938.1037365682
 20
34055.233141839504
 30
0.0
 40
300.0
  1
6640
  7
CustomStyle
100
AcDbText
  0
TEXT
  5
6E
330
17
100
AcDbEntity
  8
PileReactions
 62
3
100
AcDbText
 10
64938.10373656819
 20
34055.233141839504
 30
0.0
 40
300.0
  1
6256
  7
CustomStyle
100
AcDbText
  0
TEXT
  5
6F
330
17
100
AcDbEntity
  8
PileReactions
 62
3
100
AcDbText
 10
68463.2054858321
 20
34055.233141839504
 30
0.0
 40
300.0
  1
4932
  7
CustomStyle
100
AcDbText
  0
TEXT
  5
70
330
17
100
AcDbEntity
  8
PileReactions
 62
3
100
AcDbText
 10
72163.25231996921
 20
34055.233141839504
 30
0.0
 40
300.0
  1
2545
  7
CustomStyle
100
AcDbText
  0
TEXT
  5
71
330
17
100
AcDbEntity
  8
PileReactions
 62
3
100
AcDbText
 10
71438.1037365682
 20
31055.233141839602
 30
0.0
 40
300.0
  1
2546
  7
CustomStyle
100
AcDbText
  0
TEXT
  5
72
330
17
100
AcDbEntity
  8
PileReactions
 62
3
100
AcDbText
 10
67938.1037365682
 20
31055.233141839602
 30
0.0
 40
300.0
  1
4370
  7
CustomStyle
100
AcDbText
  0
TEXT
  5
73
330
17
100
AcDbEntity
  8
PileReactions
 62
3
100
AcDbText
 10
64938.10373656819
 20
31055.233141839602
 30
0.0
 40
300.0
  1
5123
  7
CustomStyle
100
AcDbText
  0
TEXT
  5
74
330
17
100
AcDbEntity
  8
PileReactions
 62
3
100
AcDbText
 10
61938.1037365682
 20
31055.233141839602
 30
0.0
 40
300.0
  1
5675
  7
CustomStyle
100
AcDbText
  0
TEXT
  5
75
330
17
100
AcDbEntity
  8
PileReactions
 62
3
100
AcDbText
 10
59088.1468499359
 20
32139.015331707
 30
0.0
 40
300.0
  1
6842
  7
CustomStyle
100
AcDbText
  0
TEXT
  5
76
330
17
100
AcDbEntity
  8
PileReactions
 62
3
100
AcDbText
 10
61938.1037365682
 20
28055.2331418395
 30
0.0
 40
300.0
  1
5086
  7
CustomStyle
100
AcDbText
  0
TEXT
  5
77
330
17
100
AcDbEntity
  8
PileReactions
 62
3
100
AcDbText
 10
64938.10373656819
 20
28055.2331418395
 30
0.0
 40
300.0
  1
4623
  7
CustomStyle
100
AcDbText
  0
TEXT
  5
78
330
17
100
AcDbEntity
  8
PileReactions
 62
3
100
AcDbText
 10
67938.1037365682
 20
28055.2331418395
 30
0.0
 40
300.0
  1
4005
  7
CustomStyle
100
AcDbText
  0
TEXT
  5
79
330
17
100
AcDbEntity
  8
PileReactions
 62
3
100
AcDbText
 10
72333.9648300709
 20
28033.2385875686
 30
0.0
 40
300.0
  1
1653
  7
CustomStyle
100
AcDbText
  0
TEXT
  5
7A
330
17
100
AcDbEntity
  8
PileReactions
 62
3
100
AcDbText
 10
59592.636625410996
 20
25686.7365748538
 30
0.0
 40
300.0
  1
5403
  7
CustomStyle
100
AcDbText
  0
TEXT
  5
7B
330
17
100
AcDbEntity
  8
PileReactions
 62
3
100
AcDbText
 10
64938.10373656819
 20
25055.233141839602
 30
0.0
 40
300.0
  1
4391
  7
CustomStyle
100
AcDbText
  0
TEXT
  5
7C
330
17
100
AcDbEntity
  8
PileReactions
 62
3
100
AcDbText
 10
67938.1037365682
 20
25055.233141839602
 30
0.0
 40
300.0
  1
3755
  7
CustomStyle
100
AcDbText
  0
TEXT
  5
7D
330
17
100
AcDbEntity
  8
PileReactions
 62
3
100
AcDbText
 10
71438.1037365682
 20
25055.233141839602
 30
0.0
 40
300.0
  1
2160
  7
CustomStyle
100
AcDbText
  0
TEXT
  5
7E
330
17
100
AcDbEntity
  8
PileReactions
 62
3
100
AcDbText
 10
60426.379604093694
 20
22432.9550659671
 30
0.0
 40
300.0
  1
5592
  7
CustomStyle
100
AcDbText
  0
TEXT
  5
7F
330
17
100
AcDbEntity
  8
PileReactions
 62
3
100
AcDbText
 10
63426.3796040936
 20
22432.9550659671
 30
0.0
 40
300.0
  1
5276
  7
CustomStyle
100
AcDbText
  0
TEXT
  5
80
330
17
100
AcDbEntity
  8
PileReactions
 62
3
100
AcDbText
 10
66426.3796040937
 20
22432.9550659671
 30
0.0
 40
300.0
  1
4907
  7
CustomStyle
100
AcDbText
  0
TEXT
  5
81
330
17
100
AcDbEntity
  8
PileReactions
 62
3
100
AcDbText
 10
69426.37960409389
 20
22432.9550659671
 30
0.0
 40
300.0
  1
3867
  7
CustomStyle
100
AcDbText
  0
TEXT
  5
82
330
17
100
AcDbEntity
  8
PileReactions
 62
3
100
AcDbText
 10
72484.9098940437
 20
21907.7658807142
 30
0.0
 40
300.0
  1
1805
  7
CustomStyle
100
AcDbText
  0
TEXT
  5
83
330
17
100
AcDbEntity
  8
PileReactions
 62
3
100
AcDbText
 10
69426.37960409389
 20
19432.9550659671
 30
0.0
 40
300.0
  1
4477
  7
CustomStyle
100
AcDbText
  0
TEXT
  5
84
330
17
100
AcDbEntity
  8
PileReactions
 62
3
100
AcDbText
 10
66426.3796040937
 20
19432.9550659671
 30
0.0
 40
300.0
  1
5855
  7
CustomStyle
100
AcDbText
  0
TEXT
  5
85
330
17
100
AcDbEntity
  8
PileReactions
 62
3
100
AcDbText
 10
63476.8999685261
 20
19432.9550659671
 30
0.0
 40
300.0
  1
6235
  7
CustomStyle
100
AcDbText
  0
TEXT
  5
86
330
17
100
AcDbEntity
  8
PileReactions
 62
3
100
AcDbText
 10
60426.379604093694
 20
19432.9550659671
 30
0.0
 40
300.0
  1
6154
  7
CustomStyle
100
AcDbText
  0
TEXT
  5
87
330
17
100
AcDbEntity
  8
PileReactions
 62
3
100
AcDbText
 10
72420.1715705134
 20
17974.758483962698
 30
0.0
 40
300.0
  1
2023
  7
CustomStyle
100
AcDbText
  0
TEXT
  5
88
330
17
100
AcDbEntity
  8
PileReactions
 62
3
100
AcDbText
 10
73135.9124188873
 20
14756.7397625028
 30
0.0
 40
300.0
  1
1286
  7
CustomStyle
100
AcDbText
  0
TEXT
  5
89
330
17
100
AcDbEntity
  8
PileReactions
 62
3
100
AcDbText
 10
69419.7254977788
 20
16471.679338701
 30
0.0
 40
300.0
  1
4675
  7
CustomStyle
100
AcDbText
  0
TEXT
  5
8A
330
17
100
AcDbEntity
  8
PileReactions
 62
3
100
AcDbText
 10
66426.3796040937
 20
16432.9550659671
 30
0.0
 40
300.0
  1
6541
  7
CustomStyle
100
AcDbText
  0
TEXT
  5
8B
330
17
100
AcDbEntity
  8
PileReactions
 62
3
100
AcDbText
 10
69426.37960409389
 20
13432.9550659671
 30
0.0
 40
300.0
  1
4215
  7
CustomStyle
100
AcDbText
  0
TEXT
  5
8C
330
17
100
AcDbEntity
  8
PileReactions
 62
3
100
AcDbText
 10
66426.3796040937
 20
13432.9550659671
 30
0.0
 40
300.0
  1
6178
  7
CustomStyle
100
AcDbText
  0
TEXT
  5
8D
330
17
100
AcDbEntity
  8
PileReactions
 62
3
100
AcDbText
 10
60660.969087824196
 20
15574.0822080793
 30
0.0
 40
300.0
  1
6494
  7
CustomStyle
100
AcDbText
  0
TEXT
  5
8E
330
17
100
AcDbEntity
  8
PileReactions
 62
3
100
AcDbText
 10
58688.6636856965
 20
11699.8268449093
 30
0.0
 40
300.0
  1
5386
  7
CustomStyle
100
AcDbText
  0
TEXT
  5
8F
330
17
100
AcDbEntity
  8
PileReactions
 62
3
100
AcDbText
 10
61888.9305975795
 20
11684.475148080899
 30
0.0
 40
300.0
  1
5961
  7
CustomStyle
100
AcDbText
  0
TEXT
  5
90
330
17
100
AcDbEntity
  8
PileReactions
 62
3
100
AcDbText
 10
66426.3796040937
 20
10432.9550659671
 30
0.0
 40
300.0
  1
4708
  7
CustomStyle
100
AcDbText
  0
TEXT
  5
91
330
17
100
AcDbEntity
  8
PileReactions
 62
3
100
AcDbText
 10
69426.37960409389
 20
10432.9550659671
 30
0.0
 40
300.0
  1
3272
  7
CustomStyle
100
AcDbText
  0
TEXT
  5
92
330
17
100
AcDbEntity
  8
PileReactions
 62
3
100
AcDbText
 10
72426.3796040937
 20
10432.9550659671
 30
0.0
 40
300.0
  1
1431
  7
CustomStyle
100
AcDbText
  0
TEXT
  5
93
330
17
100
AcDbEntity
  8
PileReactions
 62
3
100
AcDbText
 10
62544.9585900944
 20
8516.90232999907
 30
0.0
 40
300.0
  1
4023
  7
CustomStyle
100
AcDbText
  0
TEXT
  5
94
330
17
100
AcDbEntity
  8
PileReactions
 62
3
100
AcDbText
 10
58688.6636856965
 20
8699.826844909261
 30
0.0
 40
300.0
  1
3818
  7
CustomStyle
100
AcDbText
  0
TEXT
  5
95
330
17
100
AcDbEntity
  8
PileReactions
 62
3
100
AcDbText
 10
55965.6605050622
 20
10030.8491236987
 30
0.0
 40
300.0
  1
4548
  7
CustomStyle
100
AcDbText
  0
TEXT
  5
96
330
17
100
AcDbEntity
  8
PileReactions
 62
3
100
AcDbText
 10
57687.126556128496
 20
5357.54227290586
 30
0.0
 40
300.0
  1
2033
  7
CustomStyle
100
AcDbText
  0
TEXT
  5
97
330
17
100
AcDbEntity
  8
PileReactions
 62
3
100
AcDbText
 10
66466.6063589378
 20
5623.87591677117
 30
0.0
 40
300.0
  1
2289
  7
CustomStyle
100
AcDbText
  0
TEXT
  5
98
330
17
100
AcDbEntity
  8
PileReactions
 62
3
100
AcDbText
 10
69466.60635893789
 20
5623.87591677117
 30
0.0
 40
300.0
  1
1723
  7
CustomStyle
100
AcDbText
  0
TEXT
  5
99
330
17
100
AcDbEntity
  8
PileReactions
 62
3
100
AcDbText
 10
72466.60635893789
 20
5623.87591677117
 30
0.0
 40
300.0
  1
765
  7
CustomStyle
100
AcDbText
  0
TEXT
  5
9A
330
17
100
AcDbEntity
  8
PileReactions
 62
3
100
AcDbText
 10
72516.2801615691
 20
1779.21141777655
 30
0.0
 40
300.0
  1
235
  7
CustomStyle
100
AcDbText
  0
TEXT
  5
9B
330
17
100
AcDbEntity
  8
PileReactions
 62
3
100
AcDbText
 10
64607.284813149105
 20
1672.95978322068
 30
0.0
 40
300.0
  1
582
  7
CustomStyle
100
AcDbText
  0
TEXT
  5
9C
330
17
100
AcDbEntity
  8
PileReactions
 62
3
100
AcDbText
 10
58696.6363308487
 20
2255.96046782473
 30
0.0
 40
300.0
  1
744
  7
CustomStyle
100
AcDbText
  0
TEXT
  5
9D
330
17
100
AcDbEntity
  8
PileReactions
 62
3
100
AcDbText
 10
52688.6636856963
 20
11699.8268449093
 30
0.0
 40
300.0
  1
4760
  7
CustomStyle
100
AcDbText
  0
TEXT
  5
9E
330
17
100
AcDbEntity
  8
PileReactions
 62
3
100
AcDbText
 10
52688.6636856963
 20
8699.826844909261
 30
0.0
 40
300.0
  1
3244
  7
CustomStyle
100
AcDbText
  0
TEXT
  5
9F
330
17
100
AcDbEntity
  8
PileReactions
 62
3
100
AcDbText
 10
52688.6636856963
 20
4931.55997749045
 30
0.0
 40
300.0
  1
1522
  7
CustomStyle
100
AcDbText
  0
TEXT
  5
A0
330
17
100
AcDbEntity
  8
PileReactions
 62
3
100
AcDbText
 10
52688.6636856963
 20
1890.5075128684
 30
0.0
 40
300.0
  1
457
  7
CustomStyle
100
AcDbText
  0
TEXT
  5
A1
330
17
100
AcDbEntity
  8
PileReactions
 62
3
100
AcDbText
 10
47978.0139454176
 20
1890.56982978155
 30
0.0
 40
300.0
  1
415
  7
CustomStyle
100
AcDbText
  0
TEXT
  5
A2
330
17
100
AcDbEntity
  8
PileReactions
 62
3
100
AcDbText
 10
47978.0139454176
 20
4931.55997749045
 30
0.0
 40
300.0
  1
1397
  7
CustomStyle
100
AcDbText
  0
TEXT
  5
A3
330
17
100
AcDbEntity
  8
PileReactions
 62
3
100
AcDbText
 10
49688.663685696396
 20
8699.826844909261
 30
0.0
 40
300.0
  1
3066
  7
CustomStyle
100
AcDbText
  0
TEXT
  5
A4
330
17
100
AcDbEntity
  8
PileReactions
 62
3
100
AcDbText
 10
49688.663685696396
 20
11699.8268449093
 30
0.0
 40
300.0
  1
4852
  7
CustomStyle
100
AcDbText
  0
TEXT
  5
A5
330
17
100
AcDbEntity
  8
PileReactions
 62
3
100
AcDbText
 10
46688.6636856965
 20
11699.8268449093
 30
0.0
 40
300.0
  1
5685
  7
CustomStyle
100
AcDbText
  0
TEXT
  5
A6
330
17
100
AcDbEntity
  8
PileReactions
 62
3
100
AcDbText
 10
46688.6636856965
 20
8699.826844909261
 30
0.0
 40
300.0
  1
3185
  7
CustomStyle
100
AcDbText
  0
TEXT
  5
A7
330
17
100
AcDbEntity
  8
PileReactions
 62
3
100
AcDbText
 10
44949.9254954162
 20
4931.55997749045
 30
0.0
 40
300.0
  1
1547
  7
CustomStyle
100
AcDbText
  0
TEXT
  5
A8
330
17
100
AcDbEntity
  8
PileReactions
 62
3
100
AcDbText
 10
44949.9254954162
 20
1890.56982978155
 30
0.0
 40
300.0
  1
476
  7
CustomStyle
100
AcDbText
  0
TEXT
  5
A9
330
17
100
AcDbEntity
  8
PileReactions
 62
3
100
AcDbText
 10
43688.663685696396
 20
8699.826844909261
 30
0.0
 40
300.0
  1
3178
  7
CustomStyle
100
AcDbText
  0
TEXT
  5
AA
330
17
100
AcDbEntity
  8
PileReactions
 62
3
100
AcDbText
 10
43688.663685696396
 20
11699.8268449093
 30
0.0
 40
300.0
  1
4935
  7
CustomStyle
100
AcDbText
  0
TEXT
  5
AB
330
17
100
AcDbEntity
  8
PileReactions
 62
3
100
AcDbText
 10
40688.6636856963
 20
11699.8268449093
 30
0.0
 40
300.0
  1
4397
  7
CustomStyle
100
AcDbText
  0
TEXT
  5
AC
330
17
100
AcDbEntity
  8
PileReactions
 62
3
100
AcDbText
 10
40688.6636856963
 20
8699.826844909261
 30
0.0
 40
300.0
  1
3345
  7
CustomStyle
100
AcDbText
  0
TEXT
  5
AD
330
17
100
AcDbEntity
  8
PileReactions
 62
3
100
AcDbText
 10
40688.6636856963
 20
4931.55997749045
 30
0.0
 40
300.0
  1
2343
  7
CustomStyle
100
AcDbText
  0
TEXT
  5
AE
330
17
100
AcDbEntity
  8
PileReactions
 62
3
100
AcDbText
 10
40688.6636856963
 20
1890.56982978155
 30
0.0
 40
300.0
  1
822
  7
CustomStyle
100
AcDbText
  0
TEXT
  5
AF
330
17
100
AcDbEntity
  8
PileReactions
 62
3
100
AcDbText
 10
37688.663685696396
 20
1890.56982978155
 30
0.0
 40
300.0
  1
1205
  7
CustomStyle
100
AcDbText
  0
TEXT
  5
B0
330
17
100
AcDbEntity
  8
PileReactions
 62
3
100
AcDbText
 10
37688.663685696396
 20
4931.55997749045
 30
0.0
 40
300.0
  1
3596
  7
CustomStyle
100
AcDbText
  0
TEXT
  5
B1
330
17
100
AcDbEntity
  8
PileReactions
 62
3
100
AcDbText
 10
37688.663685696396
 20
8699.826844909261
 30
0.0
 40
300.0
  1
3791
  7
CustomStyle
100
AcDbText
  0
TEXT
  5
B2
330
17
100
AcDbEntity
  8
PileReactions
 62
3
100
AcDbText
 10
37688.663685696396
 20
11699.8268449093
 30
0.0
 40
300.0
  1
4576
  7
CustomStyle
100
AcDbText
  0
TEXT
  5
B3
330
17
100
AcDbEntity
  8
PileReactions
 62
3
100
AcDbText
 10
34688.663685696396
 20
11699.8268449093
 30
0.0
 40
300.0
  1
4496
  7
CustomStyle
100
AcDbText
  0
TEXT
  5
B4
330
17
100
AcDbEntity
  8
PileReactions
 62
3
100
AcDbText
 10
34688.663685696396
 20
8699.826844909261
 30
0.0
 40
300.0
  1
3849
  7
CustomStyle
100
AcDbText
  0
TEXT
  5
B5
330
17
100
AcDbEntity
  8
PileReactions
 62
3
100
AcDbText
 10
34688.663685696396
 20
4931.55997749045
 30
0.0
 40
300.0
  1
3465
  7
CustomStyle
100
AcDbText
  0
TEXT
  5
B6
330
17
100
AcDbEntity
  8
PileReactions
 62
3
100
AcDbText
 10
34688.663685696396
 20
1890.56982978155
 30
0.0
 40
300.0
  1
1232
  7
CustomStyle
100
AcDbText
  0
TEXT
  5
B7
330
17
100
AcDbEntity
  8
PileReactions
 62
3
100
AcDbText
 10
28688.6636856966
 20
1991.5711643910201
 30
0.0
 40
300.0
  1
1220
  7
CustomStyle
100
AcDbText
  0
TEXT
  5
B8
330
17
100
AcDbEntity
  8
PileReactions
 62
3
100
AcDbText
 10
28674.25
 20
4932.03
 30
0.0
 40
300.0
  1
3422
  7
CustomStyle
100
AcDbText
  0
TEXT
  5
B9
330
17
100
AcDbEntity
  8
PileReactions
 62
3
100
AcDbText
 10
31688.6636856964
 20
4931.55997749045
 30
0.0
 40
300.0
  1
2904
  7
CustomStyle
100
AcDbText
  0
TEXT
  5
BA
330
17
100
AcDbEntity
  8
PileReactions
 62
3
100
AcDbText
 10
31688.6636856964
 20
8699.826844909261
 30
0.0
 40
300.0
  1
3780
  7
CustomStyle
100
AcDbText
  0
TEXT
  5
BB
330
17
100
AcDbEntity
  8
PileReactions
 62
3
100
AcDbText
 10
28688.6636856966
 20
8699.826844909261
 30
0.0
 40
300.0
  1
4468
  7
CustomStyle
100
AcDbText
  0
TEXT
  5
BC
330
17
100
AcDbEntity
  8
PileReactions
 62
3
100
AcDbText
 10
25688.4324271532
 20
8699.826844909261
 30
0.0
 40
300.0
  1
5673
  7
CustomStyle
100
AcDbText
  0
TEXT
  5
BD
330
17
100
AcDbEntity
  8
PileReactions
 62
3
100
AcDbText
 10
25775.400633182697
 20
5699.826844909259
 30
0.0
 40
300.0
  1
5041
  7
CustomStyle
100
AcDbText
  0
TEXT
  5
BE
330
17
100
AcDbEntity
  8
PileReactions
 62
3
100
AcDbText
 10
31688.6636856964
 20
11699.8268449093
 30
0.0
 40
300.0
  1
4241
  7
CustomStyle
100
AcDbText
  0
TEXT
  5
BF
330
17
100
AcDbEntity
  8
PileReactions
 62
3
100
AcDbText
 10
28688.6636856966
 20
11699.8268449093
 30
0.0
 40
300.0
  1
4598
  7
CustomStyle
100
AcDbText
  0
TEXT
  5
C0
330
17
100
AcDbEntity
  8
PileReactions
 62
3
100
AcDbText
 10
25775.400633182697
 20
11699.8268449093
 30
0.0
 40
300.0
  1
5216
  7
CustomStyle
100
AcDbText
  0
TEXT
  5
C1
330
17
100
AcDbEntity
  8
PileReactions
 62
3
100
AcDbText
 10
22688.6636856963
 20
11699.8268449093
 30
0.0
 40
300.0
  1
5568
  7
CustomStyle
100
AcDbText
  0
TEXT
  5
C2
330
17
100
AcDbEntity
  8
PileReactions
 62
3
100
AcDbText
 10
22688.6636856963
 20
8699.826844909261
 30
0.0
 40
300.0
  1
6232
  7
CustomStyle
100
AcDbText
  0
TEXT
  5
C3
330
17
100
AcDbEntity
  8
PileReactions
 62
3
100
AcDbText
 10
22688.6636856963
 20
5699.826844909259
 30
0.0
 40
300.0
  1
6039
  7
CustomStyle
100
AcDbText
  0
TEXT
  5
C4
330
17
100
AcDbEntity
  8
PileReactions
 62
3
100
AcDbText
 10
22688.6636856963
 20
1991.5711643910201
 30
0.0
 40
300.0
  1
1894
  7
CustomStyle
100
AcDbText
  0
TEXT
  5
C5
330
17
100
AcDbEntity
  8
PileReactions
 62
3
100
AcDbText
 10
19688.6636856964
 20
1991.5711643910201
 30
0.0
 40
300.0
  1
1782
  7
CustomStyle
100
AcDbText
  0
TEXT
  5
C6
330
17
100
AcDbEntity
  8
PileReactions
 62
3
100
AcDbText
 10
13969.6006679444
 20
2365.62470702363
 30
0.0
 40
300.0
  1
1040
  7
CustomStyle
100
AcDbText
  0
TEXT
  5
C7
330
17
100
AcDbEntity
  8
PileReactions
 62
3
100
AcDbText
 10
19704.1450140903
 20
5737.46820813466
 30
0.0
 40
300.0
  1
5821
  7
CustomStyle
100
AcDbText
  0
TEXT
  5
C8
330
17
100
AcDbEntity
  8
PileReactions
 62
3
100
AcDbText
 10
10795.979441229401
 20
5015.37338894236
 30
0.0
 40
300.0
  1
744
  7
CustomStyle
100
AcDbText
  0
TEXT
  5
C9
330
17
100
AcDbEntity
  8
PileReactions
 62
3
100
AcDbText
 10
19688.6636856964
 20
8699.826844909261
 30
0.0
 40
300.0
  1
6257
  7
CustomStyle
100
AcDbText
  0
TEXT
  5
CA
330
17
100
AcDbEntity
  8
PileReactions
 62
3
100
AcDbText
 10
16372.915554527399
 20
9660.95420648526
 30
0.0
 40
300.0
  1
5702
  7
CustomStyle
100
AcDbText
  0
TEXT
  5
CB
330
17
100
AcDbEntity
  8
PileReactions
 62
3
100
AcDbText
 10
13317.377739002399
 20
9685.37507395028
 30
0.0
 40
300.0
  1
4505
  7
CustomStyle
100
AcDbText
  0
TEXT
  5
CC
330
17
100
AcDbEntity
  8
PileReactions
 62
3
100
AcDbText
 10
16372.915554527399
 20
12660.9542064853
 30
0.0
 40
300.0
  1
5542
  7
CustomStyle
100
AcDbText
  0
TEXT
  5
CD
330
17
100
AcDbEntity
  8
PileReactions
 62
3
100
AcDbText
 10
13372.9155545274
 20
12660.9542064853
 30
0.0
 40
300.0
  1
4826
  7
CustomStyle
100
AcDbText
  0
TEXT
  5
CE
330
17
100
AcDbEntity
  8
PileReactions
 62
3
100
AcDbText
 10
10372.9155545274
 20
12660.9542064853
 30
0.0
 40
300.0
  1
1216
  7
CustomStyle
100
AcDbText
  0
TEXT
  5
CF
330
17
100
AcDbEntity
  8
PileReactions
 62
3
100
AcDbText
 10
10688.6636856963
 20
16713.1735551507
 30
0.0
 40
300.0
  1
1187
  7
CustomStyle
100
AcDbText
  0
TEXT
  5
D0
330
17
100
AcDbEntity
  8
PileReactions
 62
3
100
AcDbText
 10
13688.6636856964
 20
16713.1735551507
 30
0.0
 40
300.0
  1
3351
  7
CustomStyle
100
AcDbText
  0
TEXT
  5
D1
330
17
100
AcDbEntity
  8
PileReactions
 62
3
100
AcDbText
 10
16688.6636856964
 20
16713.1735551507
 30
0.0
 40
300.0
  1
4136
  7
CustomStyle
100
AcDbText
  0
TEXT
  5
D2
330
17
100
AcDbEntity
  8
PileReactions
 62
3
100
AcDbText
 10
19688.6636856964
 20
16713.1735551507
 30
0.0
 40
300.0
  1
4311
  7
CustomStyle
100
AcDbText
  0
TEXT
  5
D3
330
17
100
AcDbEntity
  8
PileReactions
 62
3
100
AcDbText
 10
22688.6636856963
 20
16713.1735551507
 30
0.0
 40
300.0
  1
4556
  7
CustomStyle
100
AcDbText
  0
TEXT
  5
D4
330
17
100
AcDbEntity
  8
PileReactions
 62
3
100
AcDbText
 10
22688.6636856963
 20
19713.1735551507
 30
0.0
 40
300.0
  1
4560
  7
CustomStyle
100
AcDbText
  0
TEXT
  5
D5
330
17
100
AcDbEntity
  8
PileReactions
 62
3
100
AcDbText
 10
19688.6636856964
 20
19713.1735551507
 30
0.0
 40
300.0
  1
4014
  7
CustomStyle
100
AcDbText
  0
TEXT
  5
D6
330
17
100
AcDbEntity
  8
PileReactions
 62
3
100
AcDbText
 10
16688.6636856964
 20
19713.1735551507
 30
0.0
 40
300.0
  1
3879
  7
CustomStyle
100
AcDbText
  0
TEXT
  5
D7
330
17
100
AcDbEntity
  8
PileReactions
 62
3
100
AcDbText
 10
13688.6636856964
 20
19713.1735551507
 30
0.0
 40
300.0
  1
3350
  7
CustomStyle
100
AcDbText
  0
TEXT
  5
D8
330
17
100
AcDbEntity
  8
PileReactions
 62
3
100
AcDbText
 10
10688.6636856963
 20
19713.1735551507
 30
0.0
 40
300.0
  1
1324
  7
CustomStyle
100
AcDbText
  0
TEXT
  5
D9
330
17
100
AcDbEntity
  8
PileReactions
 62
3
100
AcDbText
 10
10688.6636856963
 20
22713.1735551507
 30
0.0
 40
300.0
  1
1274
  7
CustomStyle
100
AcDbText
  0
TEXT
  5
DA
330
17
100
AcDbEntity
  8
PileReactions
 62
3
100
AcDbText
 10
13688.6636856964
 20
22713.1735551507
 30
0.0
 40
300.0
  1
3163
  7
CustomStyle
100
AcDbText
  0
TEXT
  5
DB
330
17
100
AcDbEntity
  8
PileReactions
 62
3
100
AcDbText
 10
16688.6636856964
 20
22713.1735551507
 30
0.0
 40
300.0
  1
3719
  7
CustomStyle
100
AcDbText
  0
TEXT
  5
DC
330
17
100
AcDbEntity
  8
PileReactions
 62
3
100
AcDbText
 10
19688.6636856964
 20
22713.1735551507
 30
0.0
 40
300.0
  1
3881
  7
CustomStyle
100
AcDbText
  0
TEXT
  5
DD
330
17
100
AcDbEntity
  8
PileReactions
 62
3
100
AcDbText
 10
22688.6636856963
 20
22713.1735551507
 30
0.0
 40
300.0
  1
4277
  7
CustomStyle
100
AcDbText
  0
TEXT
  5
DE
330
17
100
AcDbEntity
  8
PileReactions
 62
3
100
AcDbText
 10
19688.6636856964
 20
27307.7748989789
 30
0.0
 40
300.0
  1
4197
  7
CustomStyle
100
AcDbText
  0
TEXT
  5
DF
330
17
100
AcDbEntity
  8
PileReactions
 62
3
100
AcDbText
 10
16642.168022251
 20
27306.1598314233
 30
0.0
 40
300.0
  1
3860
  7
CustomStyle
100
AcDbText
  0
TEXT
  5
E0
330
17
100
AcDbEntity
  8
PileReactions
 62
3
100
AcDbText
 10
13688.6636856964
 20
27340.901226116403
 30
0.0
 40
300.0
  1
3214
  7
CustomStyle
100
AcDbText
  0
TEXT
  5
E1
330
17
100
AcDbEntity
  8
PileReactions
 62
3
100
AcDbText
 10
10688.6636856963
 20
27340.901226116403
 30
0.0
 40
300.0
  1
1345
  7
CustomStyle
100
AcDbText
  0
TEXT
  5
E2
330
17
100
AcDbEntity
  8
PileReactions
 62
3
100
AcDbText
 10
10688.6636856963
 20
30455.5334281689
 30
0.0
 40
300.0
  1
1502
  7
CustomStyle
100
AcDbText
  0
TEXT
  5
E3
330
17
100
AcDbEntity
  8
PileReactions
 62
3
100
AcDbText
 10
13688.6636856964
 20
30455.5334281689
 30
0.0
 40
300.0
  1
3512
  7
CustomStyle
100
AcDbText
  0
TEXT
  5
E4
330
17
100
AcDbEntity
  8
PileReactions
 62
3
100
AcDbText
 10
16594.25
 20
30412.030000000002
 30
0.0
 40
300.0
  1
4257
  7
CustomStyle
100
AcDbText
  0
TEXT
  5
E5
330
17
100
AcDbEntity
  8
PileReactions
 62
3
100
AcDbText
 10
19688.6636856964
 20
30457.4166324176
 30
0.0
 40
300.0
  1
4758
  7
CustomStyle
100
AcDbText
  0
TEXT
  5
E6
330
17
100
AcDbEntity
  8
PileReactions
 62
3
100
AcDbText
 10
22688.6636856963
 20
30457.4166324176
 30
0.0
 40
300.0
  1
5900
  7
CustomStyle
100
AcDbText
  0
TEXT
  5
E7
330
17
100
AcDbEntity
  8
PileReactions
 62
3
100
AcDbText
 10
22688.6636856963
 20
33508.4298865069
 30
0.0
 40
300.0
  1
6221
  7
CustomStyle
100
AcDbText
  0
TEXT
  5
E8
330
17
100
AcDbEntity
  8
PileReactions
 62
3
100
AcDbText
 10
19990.489803377797
 20
34986.585392696805
 30
0.0
 40
300.0
  1
4713
  7
CustomStyle
100
AcDbText
  0
TEXT
  5
E9
330
17
100
AcDbEntity
  8
PileReactions
 62
3
100
AcDbText
 10
16656.6571130456
 20
34851.1693187151
 30
0.0
 40
300.0
  1
3947
  7
CustomStyle
100
AcDbText
  0
TEXT
  5
EA
330
17
100
AcDbEntity
  8
PileReactions
 62
3
100
AcDbText
 10
13656.657113045601
 20
34851.1693187151
 30
0.0
 40
300.0
  1
3011
  7
CustomStyle
100
AcDbText
  0
TEXT
  5
EB
330
17
100
AcDbEntity
  8
PileReactions
 62
3
100
AcDbText
 10
10656.657113045601
 20
34851.1693187151
 30
0.0
 40
300.0
  1
1239
  7
CustomStyle
100
AcDbText
  0
TEXT
  5
EC
330
17
100
AcDbEntity
  8
PileReactions
 62
3
100
AcDbText
 10
22688.6636856963
 20
36658.0716199456
 30
0.0
 40
300.0
  1
5452
  7
CustomStyle
100
AcDbText
  0
TEXT
  5
ED
330
17
100
AcDbEntity
  8
PileReactions
 62
3
100
AcDbText
 10
22688.6636856963
 20
27307.7748989789
 30
0.0
 40
300.0
  1
4714
  7
CustomStyle
100
AcDbText
  0
TEXT
  5
EE
330
17
100
AcDbEntity
  8
PileReactions
 62
3
100
AcDbText
 10
26226.8999685259
 20
35525.1964725646
 30
0.0
 40
300.0
  1
14560
  7
CustomStyle
100
AcDbText
  0
TEXT
  5
EF
330
17
100
AcDbEntity
  8
PileReactions
 62
3
100
AcDbText
 10
29976.8999685261
 20
35525.1964725646
 30
0.0
 40
300.0
  1
13593
  7
CustomStyle
100
AcDbText
  0
TEXT
  5
F0
330
17
100
AcDbEntity
  8
PileReactions
 62
3
100
AcDbText
 10
33726.899968526
 20
35525.1964725646
 30
0.0
 40
300.0
  1
14057
  7
CustomStyle
100
AcDbText
  0
TEXT
  5
F1
330
17
100
AcDbEntity
  8
PileReactions
 62
3
100
AcDbText
 10
37476.8999685261
 20
35525.1964725646
 30
0.0
 40
300.0
  1
13836
  7
CustomStyle
100
AcDbText
  0
TEXT
  5
F2
330
17
100
AcDbEntity
  8
PileReactions
 62
3
100
AcDbText
 10
41226.899968526
 20
35525.1964725646
 30
0.0
 40
300.0
  1
11602
  7
CustomStyle
100
AcDbText
  0
TEXT
  5
F3
330
17
100
AcDbEntity
  8
PileReactions
 62
3
100
AcDbText
 10
44976.899968526
 20
35525.1964725646
 30
0.0
 40
300.0
  1
12473
  7
CustomStyle
100
AcDbText
  0
TEXT
  5
F4
330
17
100
AcDbEntity
  8
PileReactions
 62
3
100
AcDbText
 10
48726.8999685261
 20
35525.1964725646
 30
0.0
 40
300.0
  1
12025
  7
CustomStyle
100
AcDbText
  0
TEXT
  5
F5
330
17
100
AcDbEntity
  8
PileReactions
 62
3
100
AcDbText
 10
52476.899968526
 20
35525.1964725646
 30
0.0
 40
300.0
  1
12061
  7
CustomStyle
100
AcDbText
  0
TEXT
  5
F6
330
17
100
AcDbEntity
  8
PileReactions
 62
3
100
AcDbText
 10
56226.8999685259
 20
35525.1964725646
 30
0.0
 40
300.0
  1
14800
  7
CustomStyle
100
AcDbText
  0
TEXT
  5
F7
330
17
100
AcDbEntity
  8
PileReactions
 62
3
100
AcDbText
 10
56226.8999685261
 20
31775.1964725646
 30
0.0
 40
300.0
  1
17015
  7
CustomStyle
100
AcDbText
  0
TEXT
  5
F8
330
17
100
AcDbEntity
  8
PileReactions
 62
3
100
AcDbText
 10
52476.899968526
 20
31775.1964725646
 30
0.0
 40
300.0
  1
13636
  7
CustomStyle
100
AcDbText
  0
TEXT
  5
F9
330
17
100
AcDbEntity
  8
PileReactions
 62
3
100
AcDbText
 10
48726.8999685261
 20
31775.1964725646
 30
0.0
 40
300.0
  1
13865
  7
CustomStyle
100
AcDbText
  0
TEXT
  5
FA
330
17
100
AcDbEntity
  8
PileReactions
 62
3
100
AcDbText
 10
44976.899968526
 20
31775.1964725646
 30
0.0
 40
300.0
  1
15529
  7
CustomStyle
100
AcDbText
  0
TEXT
  5
FB
330
17
100
AcDbEntity
  8
PileReactions
 62
3
100
AcDbText
 10
41226.899968526
 20
31775.1964725646
 30
0.0
 40
300.0
  1
14671
  7
CustomStyle
100
AcDbText
  0
TEXT
  5
FC
330
17
100
AcDbEntity
  8
PileReactions
 62
3
100
AcDbText
 10
37476.8999685261
 20
31775.1964725646
 30
0.0
 40
300.0
  1
17751
  7
CustomStyle
100
AcDbText
  0
TEXT
  5
FD
330
17
100
AcDbEntity
  8
PileReactions
 62
3
100
AcDbText
 10
33726.899968526
 20
31775.1964725646
 30
0.0
 40
300.0
  1
15657
  7
CustomStyle
100
AcDbText
  0
TEXT
  5
FE
330
17
100
AcDbEntity
  8
PileReactions
 62
3
100
AcDbText
 10
29976.8999685261
 20
31775.1964725646
 30
0.0
 40
300.0
  1
13391
  7
CustomStyle
100
AcDbText
  0
TEXT
  5
FF
330
17
100
AcDbEntity
  8
PileReactions
 62
3
100
AcDbText
 10
26226.8999685259
 20
31775.1964725646
 30
0.0
 40
300.0
  1
15918
  7
CustomStyle
100
AcDbText
  0
TEXT
  5
100
330
17
100
AcDbEntity
  8
PileReactions
 62
3
100
AcDbText
 10
26226.8999685259
 20
28025.1964725646
 30
0.0
 40
300.0
  1
11214
  7
CustomStyle
100
AcDbText
  0
TEXT
  5
101
330
17
100
AcDbEntity
  8
PileReactions
 62
3
100
AcDbText
 10
29976.8999685261
 20
28025.1964725646
 30
0.0
 40
300.0
  1
12560
  7
CustomStyle
100
AcDbText
  0
TEXT
  5
102
330
17
100
AcDbEntity
  8
PileReactions
 62
3
100
AcDbText
 10
33726.899968526
 20
28025.1964725646
 30
0.0
 40
300.0
  1
17449
  7
CustomStyle
100
AcDbText
  0
TEXT
  5
103
330
17
100
AcDbEntity
  8
PileReactions
 62
3
100
AcDbText
 10
37476.8999685261
 20
28025.1964725646
 30
0.0
 40
300.0
  1
19032
  7
CustomStyle
100
AcDbText
  0
TEXT
  5
104
330
17
100
AcDbEntity
  8
PileReactions
 62
3
100
AcDbText
 10
41226.899968526
 20
28025.1964725646
 30
0.0
 40
300.0
  1
18094
  7
CustomStyle
100
AcDbText
  0
TEXT
  5
105
330
17
100
AcDbEntity
  8
PileReactions
 62
3
100
AcDbText
 10
44976.899968526
 20
28025.1964725646
 30
0.0
 40
300.0
  1
16225
  7
CustomStyle
100
AcDbText
  0
TEXT
  5
106
330
17
100
AcDbEntity
  8
PileReactions
 62
3
100
AcDbText
 10
48726.8999685261
 20
28025.1964725646
 30
0.0
 40
300.0
  1
13681
  7
CustomStyle
100
AcDbText
  0
TEXT
  5
107
330
17
100
AcDbEntity
  8
PileReactions
 62
3
100
AcDbText
 10
52476.899968526
 20
28025.1964725646
 30
0.0
 40
300.0
  1
14283
  7
CustomStyle
100
AcDbText
  0
TEXT
  5
108
330
17
100
AcDbEntity
  8
PileReactions
 62
3
100
AcDbText
 10
56226.8999685261
 20
28025.1964725646
 30
0.0
 40
300.0
  1
16042
  7
CustomStyle
100
AcDbText
  0
TEXT
  5
109
330
17
100
AcDbEntity
  8
PileReactions
 62
3
100
AcDbText
 10
56226.8999685259
 20
24275.1964725646
 30
0.0
 40
300.0
  1
13110
  7
CustomStyle
100
AcDbText
  0
TEXT
  5
10A
330
17
100
AcDbEntity
  8
PileReactions
 62
3
100
AcDbText
 10
52476.899968526
 20
24275.1964725646
 30
0.0
 40
300.0
  1
13021
  7
CustomStyle
100
AcDbText
  0
TEXT
  5
10B
330
17
100
AcDbEntity
  8
PileReactions
 62
3
100
AcDbText
 10
48726.8999685261
 20
24275.1964725646
 30
0.0
 40
300.0
  1
13440
  7
CustomStyle
100
AcDbText
  0
TEXT
  5
10C
330
17
100
AcDbEntity
  8
PileReactions
 62
3
100
AcDbText
 10
44976.899968526
 20
24275.1964725646
 30
0.0
 40
300.0
  1
16481
  7
CustomStyle
100
AcDbText
  0
TEXT
  5
10D
330
17
100
AcDbEntity
  8
PileReactions
 62
3
100
AcDbText
 10
41226.899968526
 20
24275.1964725646
 30
0.0
 40
300.0
  1
18497
  7
CustomStyle
100
AcDbText
  0
TEXT
  5
10E
330
17
100
AcDbEntity
  8
PileReactions
 62
3
100
AcDbText
 10
37476.8999685261
 20
24275.1964725646
 30
0.0
 40
300.0
  1
18781
  7
CustomStyle
100
AcDbText
  0
TEXT
  5
10F
330
17
100
AcDbEntity
  8
PileReactions
 62
3
100
AcDbText
 10
33726.899968526
 20
24275.1964725646
 30
0.0
 40
300.0
  1
16714
  7
CustomStyle
100
AcDbText
  0
TEXT
  5
110
330
17
100
AcDbEntity
  8
PileReactions
 62
3
100
AcDbText
 10
29976.8999685261
 20
24275.1964725646
 30
0.0
 40
300.0
  1
11650
  7
CustomStyle
100
AcDbText
  0
TEXT
  5
111
330
17
100
AcDbEntity
  8
PileReactions
 62
3
100
AcDbText
 10
26226.8999685259
 20
24275.1964725646
 30
0.0
 40
300.0
  1
8956
  7
CustomStyle
100
AcDbText
  0
TEXT
  5
112
330
17
100
AcDbEntity
  8
PileReactions
 62
3
100
AcDbText
 10
26226.8999685259
 20
20525.1964725646
 30
0.0
 40
300.0
  1
10228
  7
CustomStyle
100
AcDbText
  0
TEXT
  5
113
330
17
100
AcDbEntity
  8
PileReactions
 62
3
100
AcDbText
 10
29976.8999685261
 20
20525.1964725646
 30
0.0
 40
300.0
  1
11080
  7
CustomStyle
100
AcDbText
  0
TEXT
  5
114
330
17
100
AcDbEntity
  8
PileReactions
 62
3
100
AcDbText
 10
33726.899968526
 20
20525.1964725646
 30
0.0
 40
300.0
  1
15220
  7
CustomStyle
100
AcDbText
  0
TEXT
  5
115
330
17
100
AcDbEntity
  8
PileReactions
 62
3
100
AcDbText
 10
37476.8999685261
 20
20525.1964725646
 30
0.0
 40
300.0
  1
16690
  7
CustomStyle
100
AcDbText
  0
TEXT
  5
116
330
17
100
AcDbEntity
  8
PileReactions
 62
3
100
AcDbText
 10
41226.899968526
 20
20525.1964725646
 30
0.0
 40
300.0
  1
16847
  7
CustomStyle
100
AcDbText
  0
TEXT
  5
117
330
17
100
AcDbEntity
  8
PileReactions
 62
3
100
AcDbText
 10
44976.899968526
 20
20525.1964725646
 30
0.0
 40
300.0
  1
16237
  7
CustomStyle
100
AcDbText
  0
TEXT
  5
118
330
17
100
AcDbEntity
  8
PileReactions
 62
3
100
AcDbText
 10
48726.8999685261
 20
20525.1964725646
 30
0.0
 40
300.0
  1
14688
  7
CustomStyle
100
AcDbText
  0
TEXT
  5
119
330
17
100
AcDbEntity
  8
PileReactions
 62
3
100
AcDbText
 10
52476.899968526
 20
20525.1964725646
 30
0.0
 40
300.0
  1
14904
  7
CustomStyle
100
AcDbText
  0
TEXT
  5
11A
330
17
100
AcDbEntity
  8
PileReactions
 62
3
100
AcDbText
 10
56226.8999685261
 20
20525.1964725646
 30
0.0
 40
300.0
  1
16591
  7
CustomStyle
100
AcDbText
  0
TEXT
  5
11B
330
17
100
AcDbEntity
  8
PileReactions
 62
3
100
AcDbText
 10
56226.8999685259
 20
16775.1964725646
 30
0.0
 40
300.0
  1
12533
  7
CustomStyle
100
AcDbText
  0
TEXT
  5
11C
330
17
100
AcDbEntity
  8
PileReactions
 62
3
100
AcDbText
 10
52476.899968526
 20
16775.1964725646
 30
0.0
 40
300.0
  1
12449
  7
CustomStyle
100
AcDbText
  0
TEXT
  5
11D
330
17
100
AcDbEntity
  8
PileReactions
 62
3
100
AcDbText
 10
48726.8999685261
 20
16775.1964725646
 30
0.0
 40
300.0
  1
15263
  7
CustomStyle
100
AcDbText
  0
TEXT
  5
11E
330
17
100
AcDbEntity
  8
PileReactions
 62
3
100
AcDbText
 10
44976.899968526
 20
16775.1964725646
 30
0.0
 40
300.0
  1
17108
  7
CustomStyle
100
AcDbText
  0
TEXT
  5
11F
330
17
100
AcDbEntity
  8
PileReactions
 62
3
100
AcDbText
 10
41226.899968526
 20
16775.1964725646
 30
0.0
 40
300.0
  1
13210
  7
CustomStyle
100
AcDbText
  0
TEXT
  5
120
330
17
100
AcDbEntity
  8
PileReactions
 62
3
100
AcDbText
 10
37476.8999685261
 20
16775.1964725646
 30
0.0
 40
300.0
  1
13156
  7
CustomStyle
100
AcDbText
  0
TEXT
  5
121
330
17
100
AcDbEntity
  8
PileReactions
 62
3
100
AcDbText
 10
33726.899968526
 20
16775.1964725646
 30
0.0
 40
300.0
  1
12547
  7
CustomStyle
100
AcDbText
  0
TEXT
  5
122
330
17
100
AcDbEntity
  8
PileReactions
 62
3
100
AcDbText
 10
29976.8999685261
 20
16775.1964725646
 30
0.0
 40
300.0
  1
11162
  7
CustomStyle
100
AcDbText
  0
TEXT
  5
123
330
17
100
AcDbEntity
  8
PileReactions
 62
3
100
AcDbText
 10
26226.8999685259
 20
16775.1964725646
 30
0.0
 40
300.0
  1
11060
  7
CustomStyle
100
AcDbText
  0
ENDSEC
  0
SECTION
  2
OBJECTS
  0
DICTIONARY
  5
A
330
0
100
AcDbDictionary
280
0
281
1
  3
ACAD_COLOR
350
B
  3
ACAD_GROUP
350
C
  3
ACAD_LAYOUT
350
D
  3
ACAD_MATERIAL
350
E
  3
ACAD_MLEADERSTYLE
350
F
  3
ACAD_MLINESTYLE
350
10
  3
ACAD_PLOTSETTINGS
350
11
  3
ACAD_PLOTSTYLENAME
350
12
  3
ACAD_SCALELIST
350
14
  3
ACAD_TABLESTYLE
350
15
  3
ACAD_VISUALSTYLE
350
16
  3
EZDXF_META
350
2D
  0
DICTIONARY
  5
B
330
A
100
AcDbDictionary
280
0
281
1
  0
DICTIONARY
  5
C
330
A
100
AcDbDictionary
280
0
281
1
  0
DICTIONARY
  5
D
330
A
100
AcDbDictionary
280
0
281
1
  3
Model
350
1A
  3
Layout1
350
1E
  0
DICTIONARY
  5
E
330
A
100
AcDbDictionary
280
0
281
1
  3
ByBlock
350
1F
  3
ByLayer
350
20
  3
Global
350
21
  0
DICTIONARY
  5
F
330
A
100
AcDbDictionary
280
0
281
1
  3
Standard
350
2C
  0
DICTIONARY
  5
10
330
A
100
AcDbDictionary
280
0
281
1
  3
Standard
350
22
  0
DICTIONARY
  5
11
330
A
100
AcDbDictionary
280
0
281
1
  0
ACDBDICTIONARYWDFLT
  5
12
330
A
100
AcDbDictionary
280
0
281
1
  3
Normal
350
13
100
AcDbDictionaryWithDefault
340
13
  0
ACDBPLACEHOLDER
  5
13
330
12
  0
DICTIONARY
  5
14
330
A
100
AcDbDictionary
280
0
281
1
  0
DICTIONARY
  5
15
330
A
100
AcDbDictionary
280
0
281
1
  0
DICTIONARY
  5
16
330
A
100
AcDbDictionary
280
0
281
1
  0
LAYOUT
  5
1A
330
D
100
AcDbPlotSettings
  1

  4
A3
  6

 40
7.5
 41
20.0
 42
7.5
 43
20.0
 44
420.0
 45
297.0
 46
0.0
 47
0.0
 48
0.0
 49
0.0
140
0.0
141
0.0
142
1.0
143
1.0
 70
1024
 72
1
 73
0
 74
5
  7

 75
16
 76
0
 77
2
 78
300
147
1.0
148
0.0
149
0.0
100
AcDbLayout
  1
Model
 70
1
 71
0
 10
0.0
 20
0.0
 11
420.0
 21
297.0
 12
0.0
 22
0.0
 32
0.0
 14
1e+20
 24
1e+20
 34
1e+20
 15
-1e+20
 25
-1e+20
 35
-1e+20
146
0.0
 13
0.0
 23
0.0
 33
0.0
 16
1.0
 26
0.0
 36
0.0
 17
0.0
 27
1.0
 37
0.0
 76
1
330
17
  0
LAYOUT
  5
1E
330
D
100
AcDbPlotSettings
  1

  4
A3
  6

 40
7.5
 41
20.0
 42
7.5
 43
20.0
 44
420.0
 45
297.0
 46
0.0
 47
0.0
 48
0.0
 49
0.0
140
0.0
141
0.0
142
1.0
143
1.0
 70
0
 72
1
 73
0
 74
5
  7

 75
16
 76
0
 77
2
 78
300
147
1.0
148
0.0
149
0.0
100
AcDbLayout
  1
Layout1
 70
1
 71
1
 10
0.0
 20
0.0
 11
420.0
 21
297.0
 12
0.0
 22
0.0
 32
0.0
 14
1e+20
 24
1e+20
 34
1e+20
 15
-1e+20
 25
-1e+20
 35
-1e+20
146
0.0
 13
0.0
 23
0.0
 33
0.0
 16
1.0
 26
0.0
 36
0.0
 17
0.0
 27
1.0
 37
0.0
 76
1
330
1B
  0
MATERIAL
  5
1F
102
{ACAD_REACTORS
330
E
102
}
330
E
100
AcDbMaterial
  1
ByBlock
  2

 70
0
 40
1.0
 71
1
 41
1.0
 91
-1023410177
 42
1.0
 72
1
  3

 73
1
 74
1
 75
1
 44
0.5
 73
0
 45
1.0
 46
1.0
 77
1
  4

 78
1
 79
1
170
1
 48
1.0
171
1
  6

172
1
173
1
174
1
140
1.0
141
1.0
175
1
  7

176
1
177
1
178
1
143
1.0
179
1
  8

270
1
271
1
272
1
145
1.0
146
1.0
273
1
  9

274
1
275
1
276
1
 42
1.0
 72
1
  3

 73
1
 74
1
 75
1
 94
63
  0
MATERIAL
  5
20
102
{ACAD_REACTORS
330
E
102
}
330
E
100
AcDbMaterial
  1
ByLayer
  2

 70
0
 40
1.0
 71
1
 41
1.0
 91
-1023410177
 42
1.0
 72
1
  3

 73
1
 74
1
 75
1
 44
0.5
 73
0
 45
1.0
 46
1.0
 77
1
  4

 78
1
 79
1
170
1
 48
1.0
171
1
  6

172
1
173
1
174
1
140
1.0
141
1.0
175
1
  7

176
1
177
1
178
1
143
1.0
179
1
  8

270
1
271
1
272
1
145
1.0
146
1.0
273
1
  9

274
1
275
1
276
1
 42
1.0
 72
1
  3

 73
1
 74
1
 75
1
 94
63
  0
MATERIAL
  5
21
102
{ACAD_REACTORS
330
E
102
}
330
E
100
AcDbMaterial
  1
Global
  2

 70
0
 40
1.0
 71
1
 41
1.0
 91
-1023410177
 42
1.0
 72
1
  3

 73
1
 74
1
 75
1
 44
0.5
 73
0
 45
1.0
 46
1.0
 77
1
  4

 78
1
 79
1
170
1
 48
1.0
171
1
  6

172
1
173
1
174
1
140
1.0
141
1.0
175
1
  7

176
1
177
1
178
1
143
1.0
179
1
  8

270
1
271
1
272
1
145
1.0
146
1.0
273
1
  9

274
1
275
1
276
1
 42
1.0
 72
1
  3

 73
1
 74
1
 75
1
 94
63
  0
MLINESTYLE
  5
22
102
{ACAD_REACTORS
330
10
102
}
330
10
100
AcDbMlineStyle
  2
Standard
 70
0
  3

 62
256
 51
90.0
 52
90.0
 71
2
 49
0.5
 62
256
  6
BYLAYER
 49
-0.5
 62
256
  6
BYLAYER
  0
MLEADERSTYLE
  5
2C
102
{ACAD_REACTORS
330
F
102
}
330
F
100
AcDbMLeaderStyle
179
2
170
2
171
1
172
0
 90
2
 40
0.0
 41
0.0
173
1
 91
-1056964608
 92
-2
290
1
 42
2.0
291
1
 43
8.0
  3
Standard
 44
4.0
300

342
29
174
1
175
1
176
0
178
1
 93
-1056964608
 45
4.0
292
0
297
0
 46
4.0
 94
-1056964608
 47
1.0
 49
1.0
140
1.0
294
1
141
0.0
177
0
142
1.0
295
0
296
0
143
3.75
271
0
272
9
273
9
  0
DICTIONARY
  5
2D
330
A
100
AcDbDictionary
281
1
  3
CREATED_BY_EZDXF
350
2E
  3
WRITTEN_BY_EZDXF
350
126
  0
DICTIONARYVAR
  5
2E
330
2D
100
DictionaryVariables
280
0
  1
1.3.3 @ 2024-11-07T16:03:33.844198+00:00
  0
DICTIONARYVAR
  5
126
330
2D
100
DictionaryVariables
280
0
  1
1.3.3 @ 2024-11-07T16:03:33.860724+00:00
  0
ENDSEC
  0
EOF
